<?xml version="1.0" encoding="UTF-8" standalone="no"?>
<!-- Created with Inkscape (http://www.inkscape.org/) -->

<svg
   version="1.1"
   id="svg1"
   width="407.70001"
   height="407.70001"
   viewBox="0 0 407.70002 407.70001"
   sodipodi:docname="fablab_triangle_print_rgb.svg"
   inkscape:export-filename="fablab_triangle_print_rgb.png"
   inkscape:export-xdpi="11.784446"
   inkscape:export-ydpi="11.784446"
   inkscape:version="1.4 (e7c3feb100, 2024-10-09)"
   xmlns:inkscape="http://www.inkscape.org/namespaces/inkscape"
   xmlns:sodipodi="http://sodipodi.sourceforge.net/DTD/sodipodi-0.dtd"
   xmlns="http://www.w3.org/2000/svg"
   xmlns:svg="http://www.w3.org/2000/svg">
  <defs
     id="defs1">
    <linearGradient
       x1="0"
       y1="0"
       x2="1"
       y2="0"
       gradientUnits="userSpaceOnUse"
       gradientTransform="matrix(302.0345,0,0,302.0345,18.004557,271.21432)"
       spreadMethod="pad"
       id="linearGradient2">
      <stop
         style="stop-color:#c3c3c3;stop-opacity:1;"
         offset="0"
         id="stop1" />
      <stop
         style="stop-color:#868686;stop-opacity:1;"
         offset="1"
         id="stop2" />
    </linearGradient>
    <clipPath
       clipPathUnits="userSpaceOnUse"
       id="clipPath4">
      <path
         d="M 0,305.775 H 283.843 V 0 H 0 Z"
         transform="translate(-1.644,-184.7188)"
         id="path4" />
    </clipPath>
    <clipPath
       clipPathUnits="userSpaceOnUse"
       id="clipPath6">
      <path
         d="M 0,305.775 H 283.843 V 0 H 0 Z"
         transform="translate(-250.80081,-265.02441)"
         id="path6" />
    </clipPath>
    <linearGradient
       x1="0"
       y1="0"
       x2="1"
       y2="0"
       gradientUnits="userSpaceOnUse"
       gradientTransform="matrix(273.5013,157.90146,-157.90146,273.5013,132.41536,120.33803)"
       spreadMethod="pad"
       id="linearGradient7">
      <stop
         style="stop-opacity:1;stop-color:#bebebe"
         offset="0"
         id="stop6" />
      <stop
         style="stop-opacity:1;stop-color:#212121"
         offset="1"
         id="stop7" />
    </linearGradient>
    <clipPath
       clipPathUnits="userSpaceOnUse"
       id="clipPath9">
      <path
         d="M 0,305.775 H 283.843 V 0 H 0 Z"
         transform="translate(-195.7686,-9.0957002)"
         id="path9" />
    </clipPath>
    <clipPath
       clipPathUnits="userSpaceOnUse"
       id="clipPath11">
      <path
         d="M 0,305.775 H 283.843 V 0 H 0 Z"
         transform="translate(-34.160201,-146.0068)"
         id="path11" />
    </clipPath>
    <clipPath
       clipPathUnits="userSpaceOnUse"
       id="clipPath13">
      <path
         d="M 0,305.775 H 283.843 V 0 H 0 Z"
         transform="translate(-63.727502,-140.8213)"
         id="path13" />
    </clipPath>
    <clipPath
       clipPathUnits="userSpaceOnUse"
       id="clipPath15">
      <path
         d="M 0,305.775 H 283.843 V 0 H 0 Z"
         transform="translate(-63.727502,-140.8213)"
         id="path15" />
    </clipPath>
    <clipPath
       clipPathUnits="userSpaceOnUse"
       id="clipPath17">
      <path
         d="M 0,305.775 H 283.843 V 0 H 0 Z"
         transform="translate(-95.4385,-131.7832)"
         id="path17" />
    </clipPath>
    <clipPath
       clipPathUnits="userSpaceOnUse"
       id="clipPath19">
      <path
         d="M 0,305.775 H 283.843 V 0 H 0 Z"
         transform="translate(-95.4385,-131.7832)"
         id="path19" />
    </clipPath>
    <clipPath
       clipPathUnits="userSpaceOnUse"
       id="clipPath21">
      <path
         d="M 0,305.775 H 283.843 V 0 H 0 Z"
         transform="translate(-123.6943,-128.45121)"
         id="path21" />
    </clipPath>
    <clipPath
       clipPathUnits="userSpaceOnUse"
       id="clipPath23">
      <path
         d="M 0,305.775 H 283.843 V 0 H 0 Z"
         transform="translate(-115.6162,-108.874)"
         id="path23" />
    </clipPath>
    <clipPath
       clipPathUnits="userSpaceOnUse"
       id="clipPath25">
      <path
         d="M 0,305.775 H 283.843 V 0 H 0 Z"
         transform="translate(-115.6162,-108.874)"
         id="path25" />
    </clipPath>
    <clipPath
       clipPathUnits="userSpaceOnUse"
       id="clipPath27">
      <path
         d="M 0,305.775 H 283.843 V 0 H 0 Z"
         transform="translate(-147.3262,-99.8359)"
         id="path27" />
    </clipPath>
    <clipPath
       clipPathUnits="userSpaceOnUse"
       id="clipPath29">
      <path
         d="M 0,305.775 H 283.843 V 0 H 0 Z"
         transform="translate(-147.3262,-99.8359)"
         id="path29" />
    </clipPath>
    <clipPath
       clipPathUnits="userSpaceOnUse"
       id="clipPath31">
      <path
         d="M 0,305.775 H 283.843 V 0 H 0 Z"
         transform="translate(-41.912101,-107.62701)"
         id="path31" />
    </clipPath>
    <clipPath
       clipPathUnits="userSpaceOnUse"
       id="clipPath33">
      <path
         d="M 0,305.775 H 283.843 V 0 H 0 Z"
         transform="translate(-56.582002,-103.98441)"
         id="path33" />
    </clipPath>
    <clipPath
       clipPathUnits="userSpaceOnUse"
       id="clipPath35">
      <path
         d="M 0,305.775 H 283.843 V 0 H 0 Z"
         transform="translate(-79.208004,-85.1758)"
         id="path35" />
    </clipPath>
    <clipPath
       clipPathUnits="userSpaceOnUse"
       id="clipPath37">
      <path
         d="M 0,305.775 H 283.843 V 0 H 0 Z"
         transform="translate(-95.479502,-59.392599)"
         id="path37" />
    </clipPath>
    <clipPath
       clipPathUnits="userSpaceOnUse"
       id="clipPath39">
      <path
         d="M 0,305.775 H 283.843 V 0 H 0 Z"
         transform="translate(-114.73341,-63.791004)"
         id="path39" />
    </clipPath>
    <clipPath
       clipPathUnits="userSpaceOnUse"
       id="clipPath41">
      <path
         d="M 0,305.775 H 283.843 V 0 H 0 Z"
         transform="translate(-120.98631,-57.740199)"
         id="path41" />
    </clipPath>
    <clipPath
       clipPathUnits="userSpaceOnUse"
       id="clipPath43">
      <path
         d="M 0,305.775 H 283.843 V 0 H 0 Z"
         transform="translate(-148.9434,-43.197301)"
         id="path43" />
    </clipPath>
  </defs>
  <sodipodi:namedview
     id="namedview1"
     pagecolor="#ffffff"
     bordercolor="#000000"
     borderopacity="0.25"
     inkscape:showpageshadow="2"
     inkscape:pageopacity="0.0"
     inkscape:pagecheckerboard="0"
     inkscape:deskcolor="#d1d1d1"
     inkscape:zoom="0.96203887"
     inkscape:cx="288.96961"
     inkscape:cy="250.50963"
     inkscape:window-width="1920"
     inkscape:window-height="1131"
     inkscape:window-x="0"
     inkscape:window-y="0"
     inkscape:window-maximized="1"
     inkscape:current-layer="layer-MC0">
    <inkscape:page
       x="0"
       y="0"
       inkscape:label="1"
       id="page1"
       width="407.70001"
       height="407.70001"
       margin="0.36979201 1.3559999 0 0.33593732"
       bleed="0" />
  </sodipodi:namedview>
  <g
     id="layer-MC0"
     inkscape:groupmode="layer"
     inkscape:label="svg2">
    <rect
       style="fill:#000000;stroke-width:2;opacity:1"
       id="rect43"
       width="408.67056"
       height="411.65894"
       x="0.33593732"
       y="0.36981201" />
    <path
       id="path2"
       d="m 242.50133,156.49067 c 0,0 0,85.97067 0.004,94.56133 v 0 c -0.003,63.94267 -16.09867,80.23334 -60.808,54.42 v 0 C 172.568,300.20134 75.086665,243.92267 68.155999,239.92134 v 0 C 43.149333,225.484 18.192,193.26001 18.192,161.40801 v 0 l -0.185333,-10e-4 c 0,0 -0.0027,52.536 -0.0027,80.09067 v 0 c 0.004,27.55466 13.457333,59.676 37.734666,73.69333 v 0 c 12.497333,7.21733 126.575997,73.08 134.030667,77.384 v 0 c 31.57066,18.228 63.34933,15.672 87.256,2.99866 v 0 c 27.58266,-15.928 43.01333,-53.652 43.01333,-82.52666 v 0 c 0,-54.22 0,-120.848 0,-131.10666 v 0 c 0,-30.68267 -7.824,-45.176 -25.80267,-45.17334 v 0 c -12.26933,0.001 -29.272,6.756 -51.73466,19.724"
       style="fill:#7f7f7f;stroke:none;stroke-width:1.33333;fill-opacity:1" />
    <path
       id="path3"
       d="m 0,0 c 0,-23.889 18.718,-48.057 37.473,-58.885 5.198,-3.001 78.308,-45.21 85.156,-49.163 33.532,-19.359 45.604,-7.141 45.606,40.816 -0.003,6.442 -0.003,70.92 -0.003,70.92 41.532,23.978 58.152,19.63 58.152,-19.087 0.001,-7.694 0,-57.664 0.001,-98.33 -0.001,-21.656 -11.573,-49.949 -32.26,-61.894 -17.93,-9.506 -41.764,-11.422 -65.441,2.249 -5.592,3.228 -91.151,52.625 -100.524,58.037 -18.209,10.513 -28.299,34.605 -28.301,55.27 C -0.141,-39.4 -0.14,0 -0.14,0"
       style="fill:none;stroke:#ffffff;stroke-width:10.00000025;stroke-linecap:butt;stroke-linejoin:miter;stroke-miterlimit:10;stroke-dasharray:none;stroke-opacity:1"
       transform="matrix(1.3333333,0,0,-1.3333333,18.192,161.40827)"
       clip-path="url(#clipPath4)" />
    <path
       id="path5"
       d="m 0,0 c -20.689,11.944 -50.977,7.818 -69.733,-3.01 -5.197,-3.001 -78.307,-45.212 -85.154,-49.166 -33.531,-19.359 -28.987,-35.924 12.545,-59.903 5.58,-3.219 61.42,-35.459 61.42,-35.459 0,-47.955 -12.077,-60.176 -45.607,-40.816 -6.663,3.845 -49.938,28.832 -85.155,49.164 -18.755,10.828 -37.472,34.996 -37.473,58.884 0.733,20.281 10.99,41.88 34.668,55.55 5.592,3.229 91.151,52.626 100.524,58.037 18.209,10.513 44.117,7.205 62.015,-3.126 C -34.051,19.822 0.07,0.121 0.07,0.121"
       style="fill:#ffffff;stroke:#ffffff;stroke-width:2.503;stroke-linecap:butt;stroke-linejoin:miter;stroke-miterlimit:10;stroke-dasharray:none;stroke-opacity:1;fill-opacity:1"
       transform="matrix(1.3333333,0,0,-1.3333333,350.40107,54.334133)"
       clip-path="url(#clipPath6)" />
    <path
       id="path7"
       d="M 257.42266,58.348009 C 210.468,85.457341 152.768,118.77067 143.88533,123.90001 v 0 c -44.708,25.81066 -38.648,47.90266 16.72533,79.87333 v 0 c 0,0 74.45467,-42.98533 81.89067,-47.28267 v 0 c 55.37733,-31.97066 77.536,-26.17466 77.536,25.44934 v 0 c 0,10.54266 10e-4,123.10399 10e-4,131.10666 v 0 c 0,28.87466 -15.43067,66.59866 -43.01333,82.52666 v 0 l 0.092,0.16 c 0,0 45.496,-26.26533 69.36133,-40.044 v 0 c 23.86133,-13.77866 44.95333,-41.49066 44.95333,-69.52533 v 0 -154.76666 c 0,-36.451999 -18.10267,-62.697332 -41.03067,-77.063998 v 0 c -11.69866,-6.752 -25.69466,-9.653333 -39.84799,-9.652 v 0 c -19.22,0 -38.72667,5.350667 -53.13067,13.666667"
       style="fill:#000000;stroke:none;stroke-width:1.33333;fill-opacity:1" />
    <path
       id="path8"
       d="m 0,0 c 20.688,11.945 32.26,40.238 32.261,61.895 -0.001,6.001 -0.002,90.422 -0.002,98.329 0,38.718 -16.618,43.065 -58.152,19.088 -5.577,-3.224 -61.417,-35.462 -61.417,-35.462 -41.531,23.977 -46.076,40.546 -12.545,59.904 6.662,3.848 49.938,28.832 85.154,49.165 18.757,10.828 49.044,14.953 69.733,3.01 17.197,-10.775 30.774,-30.458 30.774,-57.798 V 82.057 C 85.806,61.03 69.986,40.247 52.091,29.912 34.191,19.578 0.069,-0.121 0.069,-0.121"
       style="fill:none;stroke:#ffffff;stroke-width:10.00000025;stroke-linecap:butt;stroke-linejoin:miter;stroke-miterlimit:10;stroke-dasharray:none;stroke-opacity:1"
       transform="matrix(1.3333333,0,0,-1.3333333,277.0248,395.5724)"
       clip-path="url(#clipPath9)" />
    <path
       id="path10"
       d="m 0,0 19.974,10.823 -2.914,1.794 2.757,1.494 2.914,-1.794 3.377,1.829 c 4.455,2.414 8.605,2.437 12.45,0.069 0.572,-0.351 1.188,-0.795 1.849,-1.33 L 37.649,11.39 c -0.795,0.617 -1.397,1.053 -1.81,1.307 -2.009,1.237 -4.218,1.202 -6.628,-0.103 L 25.525,10.597 30.516,7.524 27.758,6.03 22.768,9.103 2.794,-1.72 Z"
       style="fill:#000000;fill-opacity:1;fill-rule:nonzero;stroke:#000000;stroke-width:1;stroke-linecap:butt;stroke-linejoin:miter;stroke-miterlimit:4;stroke-dasharray:none;stroke-opacity:1"
       transform="matrix(1.3333333,0,0,-1.3333333,61.546933,213.02427)"
       clip-path="url(#clipPath11)" />
    <path
       id="path12"
       d="m 0,0 c -2.142,1.318 -3.806,2.031 -4.989,2.136 -1.185,0.105 -2.664,-0.323 -4.44,-1.284 -1.839,-0.998 -2.736,-1.853 -2.692,-2.569 0.045,-0.715 1.044,-1.675 3,-2.879 3.938,-2.425 7.334,-2.864 10.187,-1.318 1.791,0.971 2.615,1.859 2.467,2.665 C 3.387,-2.443 2.209,-1.36 0,0 M 0.622,5.534 -2.152,7.242 C 0.494,8.677 2.776,9.332 4.692,9.207 6.608,9.082 9.03,8.119 11.958,6.316 15.138,4.359 16.728,2.733 16.729,1.439 16.728,0.146 15.158,-1.352 12.02,-3.052 l -15.004,-8.13 -2.794,1.721 2.669,1.191 -0.037,0.05 c -2.935,-0.358 -6.032,0.467 -9.292,2.474 -4.816,2.966 -4.918,5.697 -0.305,8.197 2.742,1.486 5.175,2.181 7.3,2.084 2.123,-0.097 4.596,-1.014 7.417,-2.75 3.352,-2.064 4.577,-3.726 3.672,-4.986 l 0.083,-0.025 2.759,1.496 c 2.6,1.408 3.986,2.504 4.156,3.29 0.169,0.785 -0.757,1.8 -2.78,3.045 C 6.432,6.719 3.566,7.153 1.268,5.908 1.157,5.848 0.942,5.723 0.622,5.534"
       style="fill:#000000;fill-opacity:1;fill-rule:nonzero;stroke:none"
       transform="matrix(1.3333333,0,0,-1.3333333,100.97,219.93827)"
       clip-path="url(#clipPath13)" />
    <path
       id="path14"
       d="m 0,0 c -2.142,1.318 -3.806,2.031 -4.989,2.136 -1.185,0.105 -2.664,-0.323 -4.44,-1.284 -1.839,-0.998 -2.736,-1.853 -2.692,-2.569 0.045,-0.715 1.044,-1.675 3,-2.879 3.938,-2.425 7.334,-2.864 10.187,-1.318 1.791,0.971 2.615,1.859 2.467,2.665 C 3.387,-2.443 2.209,-1.36 0,0 Z M 0.622,5.534 -2.152,7.242 C 0.494,8.677 2.776,9.332 4.692,9.207 6.608,9.082 9.03,8.119 11.958,6.316 15.138,4.359 16.728,2.733 16.729,1.439 16.728,0.146 15.158,-1.352 12.02,-3.052 l -15.004,-8.13 -2.794,1.721 2.669,1.191 -0.037,0.05 c -2.935,-0.358 -6.032,0.467 -9.292,2.474 -4.816,2.966 -4.918,5.697 -0.305,8.197 2.742,1.486 5.175,2.181 7.3,2.084 2.123,-0.097 4.596,-1.014 7.417,-2.75 3.352,-2.064 4.577,-3.726 3.672,-4.986 l 0.083,-0.025 2.759,1.496 c 2.6,1.408 3.986,2.504 4.156,3.29 0.169,0.785 -0.757,1.8 -2.78,3.045 C 6.432,6.719 3.566,7.153 1.268,5.908 1.157,5.848 0.942,5.723 0.622,5.534 Z"
       style="fill:none;stroke:#000000;stroke-width:1;stroke-linecap:butt;stroke-linejoin:miter;stroke-miterlimit:4;stroke-dasharray:none;stroke-opacity:1"
       transform="matrix(1.3333333,0,0,-1.3333333,100.97,219.93827)"
       clip-path="url(#clipPath15)" />
    <path
       id="path16"
       d="m 0,0 c -2.195,1.352 -4.225,1.954 -6.087,1.808 -1.862,-0.147 -4.458,-1.122 -7.787,-2.926 -4.105,-2.225 -6.386,-3.849 -6.839,-4.872 -0.454,-1.024 0.53,-2.281 2.951,-3.772 2.049,-1.261 3.978,-1.784 5.785,-1.566 1.809,0.217 4.497,1.292 8.063,3.224 3.757,2.036 5.884,3.565 6.381,4.589 C 2.965,-2.49 2.142,-1.319 0,0 M -28.708,-5.829 3.749,11.757 6.543,10.036 -6.083,3.195 -6.095,3.12 c 2.842,0.801 6.032,0.111 9.572,-2.068 2.794,-1.72 3.859,-3.376 3.196,-4.967 -0.663,-1.592 -3.263,-3.616 -7.796,-6.073 -4.296,-2.327 -7.835,-3.594 -10.615,-3.799 -2.781,-0.205 -5.641,0.597 -8.581,2.407 -2.994,1.844 -3.937,3.644 -2.827,5.401 l -0.102,0.036 -2.666,-1.607 z"
       style="fill:#000000;fill-opacity:1;fill-rule:nonzero;stroke:none"
       transform="matrix(1.3333333,0,0,-1.3333333,143.25133,231.98907)"
       clip-path="url(#clipPath17)" />
    <path
       id="path18"
       d="m 0,0 c -2.195,1.352 -4.225,1.954 -6.087,1.808 -1.862,-0.147 -4.458,-1.122 -7.787,-2.926 -4.105,-2.225 -6.386,-3.849 -6.839,-4.872 -0.454,-1.024 0.53,-2.281 2.951,-3.772 2.049,-1.261 3.978,-1.784 5.785,-1.566 1.809,0.217 4.497,1.292 8.063,3.224 3.757,2.036 5.884,3.565 6.381,4.589 C 2.965,-2.49 2.142,-1.319 0,0 Z M -28.708,-5.829 3.749,11.757 6.543,10.036 -6.083,3.195 -6.095,3.12 c 2.842,0.801 6.032,0.111 9.572,-2.068 2.794,-1.72 3.859,-3.376 3.196,-4.967 -0.663,-1.592 -3.263,-3.616 -7.796,-6.073 -4.296,-2.327 -7.835,-3.594 -10.615,-3.799 -2.781,-0.205 -5.641,0.597 -8.581,2.407 -2.994,1.844 -3.937,3.644 -2.827,5.401 l -0.102,0.036 -2.666,-1.607 z"
       style="fill:none;stroke:#000000;stroke-width:1;stroke-linecap:butt;stroke-linejoin:miter;stroke-miterlimit:4;stroke-dasharray:none;stroke-opacity:1"
       transform="matrix(1.3333333,0,0,-1.3333333,143.25133,231.98907)"
       clip-path="url(#clipPath19)" />
    <path
       id="path20"
       d="m 0,0 -32.457,-17.586 -2.794,1.72 32.457,17.586 z"
       style="fill:#000000;fill-opacity:1;fill-rule:nonzero;stroke:#000000;stroke-width:1;stroke-linecap:butt;stroke-linejoin:miter;stroke-miterlimit:4;stroke-dasharray:none;stroke-opacity:1"
       transform="matrix(1.3333333,0,0,-1.3333333,180.92573,236.43173)"
       clip-path="url(#clipPath21)" />
    <path
       id="path22"
       d="m 0,0 c -2.143,1.318 -3.807,2.03 -4.99,2.136 -1.184,0.105 -2.664,-0.323 -4.44,-1.284 -1.839,-0.998 -2.736,-1.853 -2.692,-2.569 0.045,-0.715 1.045,-1.675 3,-2.879 3.938,-2.425 7.335,-2.864 10.188,-1.318 1.791,0.971 2.614,1.859 2.467,2.665 C 3.386,-2.443 2.209,-1.36 0,0 m 0.622,5.534 -2.774,1.708 c 2.646,1.435 4.927,2.09 6.844,1.965 1.916,-0.125 4.338,-1.088 7.265,-2.891 3.18,-1.957 4.771,-3.584 4.771,-4.877 0,-1.293 -1.57,-2.791 -4.708,-4.491 l -15.004,-8.13 -2.794,1.721 2.669,1.191 -0.037,0.05 c -2.936,-0.358 -6.033,0.467 -9.292,2.474 -4.817,2.965 -4.919,5.697 -0.306,8.197 2.742,1.486 5.176,2.181 7.3,2.084 2.124,-0.097 4.596,-1.014 7.417,-2.75 3.353,-2.064 4.577,-3.726 3.673,-4.986 l 0.083,-0.025 2.759,1.495 c 2.6,1.409 3.985,2.505 4.155,3.291 0.17,0.785 -0.756,1.799 -2.779,3.045 C 6.432,6.719 3.565,7.152 1.267,5.907 1.156,5.847 0.941,5.723 0.622,5.534"
       style="fill:#000000;fill-opacity:1;fill-rule:nonzero;stroke:none"
       transform="matrix(1.3333333,0,0,-1.3333333,170.15493,262.53467)"
       clip-path="url(#clipPath23)" />
    <path
       id="path24"
       d="m 0,0 c -2.143,1.318 -3.807,2.03 -4.99,2.136 -1.184,0.105 -2.664,-0.323 -4.44,-1.284 -1.839,-0.998 -2.736,-1.853 -2.692,-2.569 0.045,-0.715 1.045,-1.675 3,-2.879 3.938,-2.425 7.335,-2.864 10.188,-1.318 1.791,0.971 2.614,1.859 2.467,2.665 C 3.386,-2.443 2.209,-1.36 0,0 Z m 0.622,5.534 -2.774,1.708 c 2.646,1.435 4.927,2.09 6.844,1.965 1.916,-0.125 4.338,-1.088 7.265,-2.891 3.18,-1.957 4.771,-3.584 4.771,-4.877 0,-1.293 -1.57,-2.791 -4.708,-4.491 l -15.004,-8.13 -2.794,1.721 2.669,1.191 -0.037,0.05 c -2.936,-0.358 -6.033,0.467 -9.292,2.474 -4.817,2.965 -4.919,5.697 -0.306,8.197 2.742,1.486 5.176,2.181 7.3,2.084 2.124,-0.097 4.596,-1.014 7.417,-2.75 3.353,-2.064 4.577,-3.726 3.673,-4.986 l 0.083,-0.025 2.759,1.495 c 2.6,1.409 3.985,2.505 4.155,3.291 0.17,0.785 -0.756,1.799 -2.779,3.045 C 6.432,6.719 3.565,7.152 1.267,5.907 1.156,5.847 0.941,5.723 0.622,5.534 Z"
       style="fill:none;stroke:#000000;stroke-width:1;stroke-linecap:butt;stroke-linejoin:miter;stroke-miterlimit:4;stroke-dasharray:none;stroke-opacity:1"
       transform="matrix(1.3333333,0,0,-1.3333333,170.15493,262.53467)"
       clip-path="url(#clipPath25)" />
    <path
       id="path26"
       d="m 0,0 c -2.195,1.352 -4.224,1.954 -6.086,1.808 -1.862,-0.147 -4.459,-1.122 -7.788,-2.926 -4.105,-2.225 -6.386,-3.849 -6.839,-4.872 -0.454,-1.024 0.53,-2.281 2.952,-3.772 2.049,-1.261 3.977,-1.784 5.785,-1.567 1.808,0.218 4.496,1.293 8.062,3.225 3.757,2.036 5.885,3.565 6.382,4.589 C 2.965,-2.49 2.143,-1.319 0,0 M -28.708,-5.829 3.749,11.757 6.542,10.036 -6.083,3.195 -6.094,3.12 c 2.842,0.801 6.032,0.111 9.572,-2.068 2.793,-1.72 3.859,-3.376 3.196,-4.967 -0.664,-1.593 -3.263,-3.616 -7.796,-6.073 -4.296,-2.327 -7.835,-3.594 -10.615,-3.799 -2.782,-0.205 -5.642,0.597 -8.582,2.407 -2.994,1.844 -3.936,3.644 -2.826,5.401 l -0.103,0.036 -2.666,-1.607 z"
       style="fill:#000000;fill-opacity:1;fill-rule:nonzero;stroke:none"
       transform="matrix(1.3333333,0,0,-1.3333333,212.43493,274.58547)"
       clip-path="url(#clipPath27)" />
    <path
       id="path28"
       d="m 0,0 c -2.195,1.352 -4.224,1.954 -6.086,1.808 -1.862,-0.147 -4.459,-1.122 -7.788,-2.926 -4.105,-2.225 -6.386,-3.849 -6.839,-4.872 -0.454,-1.024 0.53,-2.281 2.952,-3.772 2.049,-1.261 3.977,-1.784 5.785,-1.567 1.808,0.218 4.496,1.293 8.062,3.225 3.757,2.036 5.885,3.565 6.382,4.589 C 2.965,-2.49 2.143,-1.319 0,0 Z M -28.708,-5.829 3.749,11.757 6.542,10.036 -6.083,3.195 -6.094,3.12 c 2.842,0.801 6.032,0.111 9.572,-2.068 2.793,-1.72 3.859,-3.376 3.196,-4.967 -0.664,-1.593 -3.263,-3.616 -7.796,-6.073 -4.296,-2.327 -7.835,-3.594 -10.615,-3.799 -2.782,-0.205 -5.642,0.597 -8.582,2.407 -2.994,1.844 -3.936,3.644 -2.826,5.401 l -0.103,0.036 -2.666,-1.607 z"
       style="fill:none;stroke:#000000;stroke-width:1;stroke-linecap:butt;stroke-linejoin:miter;stroke-miterlimit:4;stroke-dasharray:none;stroke-opacity:1"
       transform="matrix(1.3333333,0,0,-1.3333333,212.43493,274.58547)"
       clip-path="url(#clipPath29)" />
    <path
       id="path30"
       d="m 0,0 0.455,-24.283 -1.988,1.197 -0.364,19.426 -0.028,1.459 -10e-4,0.721 -0.001,0.722 -0.051,0.031 -0.144,-0.476 c -0.072,-0.238 -0.12,-0.391 -0.145,-0.457 l -0.314,-0.938 -5.627,-16.47 -1.987,1.197 -6.39,23.475 -0.369,1.33 -0.165,0.662 c -0.046,0.156 -0.102,0.371 -0.166,0.646 l -0.052,0.031 0.026,-0.668 0.025,-0.681 0.025,-1.336 0.365,-19.426 -1.989,1.197 -0.455,24.282 3.447,-2.075 4.995,-18.537 0.795,-2.994 0.399,-1.488 0.385,-1.481 0.051,-0.031 0.338,1.045 c 0.17,0.496 0.283,0.844 0.338,1.045 l 0.714,2.068 4.379,12.912 z"
       style="fill:#000000;fill-opacity:1;fill-rule:nonzero;stroke:#000000;stroke-width:0.4;stroke-linecap:butt;stroke-linejoin:miter;stroke-miterlimit:4;stroke-dasharray:none;stroke-opacity:1"
       transform="matrix(1.3333333,0,0,-1.3333333,71.8828,264.19733)"
       clip-path="url(#clipPath31)" />
    <path
       id="path32"
       d="m 0,0 0.043,-2.313 -1.988,1.198 -0.044,2.312 z M -4.777,2.877 -4.734,0.564 -6.723,1.76 -6.766,4.072 Z m 6.488,-9.096 1.988,-1.197 0.32,-17.006 c 0.057,-3.084 -0.354,-4.838 -1.236,-5.264 -0.881,-0.423 -2.759,0.229 -5.634,1.959 -2.693,1.622 -4.533,3.19 -5.519,4.704 -0.985,1.513 -1.504,3.574 -1.553,6.183 l -0.015,0.819 -0.319,17.007 1.988,-1.197 0.32,-17.008 c 0.043,-2.301 0.342,-3.906 0.894,-4.82 0.554,-0.914 1.893,-2.01 4.019,-3.289 2.307,-1.389 3.739,-1.967 4.296,-1.735 0.557,0.235 0.813,1.514 0.77,3.838 z"
       style="fill:#000000;fill-opacity:1;fill-rule:nonzero;stroke:#000000;stroke-width:0.4;stroke-linecap:butt;stroke-linejoin:miter;stroke-miterlimit:4;stroke-dasharray:none;stroke-opacity:1"
       transform="matrix(1.3333333,0,0,-1.3333333,91.442667,269.05413)"
       clip-path="url(#clipPath33)" />
    <path
       id="path34"
       d="m 0,0 0.456,-24.281 -3.267,1.965 -7.694,20.972 -1.252,3.444 -0.619,1.711 -0.619,1.709 -0.053,0.031 0.031,-0.916 0.03,-0.932 0.034,-1.814 0.343,-18.307 -1.988,1.197 -0.456,24.284 3.253,-1.959 6.715,-18.36 1.75,-4.816 0.874,-2.391 0.862,-2.4 0.051,-0.032 -0.029,0.915 -0.03,0.933 -0.035,1.815 -0.345,18.429 z"
       style="fill:#000000;fill-opacity:1;fill-rule:nonzero;stroke:#000000;stroke-width:0.4;stroke-linecap:butt;stroke-linejoin:miter;stroke-miterlimit:4;stroke-dasharray:none;stroke-opacity:1"
       transform="matrix(1.3333333,0,0,-1.3333333,121.61067,294.13227)"
       clip-path="url(#clipPath35)" />
    <path
       id="path36"
       d="m 0,0 1.975,-1.188 0.017,-0.925 c 0.063,-3.309 -0.308,-5.129 -1.11,-5.461 -0.802,-0.332 -2.851,0.494 -6.148,2.478 -2.952,1.778 -4.841,3.633 -5.669,5.567 -0.828,1.935 -1.292,5.593 -1.393,10.978 -0.079,4.211 -0.038,6.805 0.122,7.78 0.16,0.976 0.658,1.636 1.494,1.976 0.981,0.395 3.127,-0.404 6.441,-2.398 2.247,-1.354 3.768,-2.744 4.565,-4.174 0.797,-1.43 1.221,-3.52 1.272,-6.27 l 0.026,-0.668 -1.976,1.19 -0.027,0.756 c -0.037,1.957 -0.29,3.351 -0.761,4.185 -0.472,0.836 -1.516,1.74 -3.134,2.715 -2.84,1.709 -4.568,2.426 -5.184,2.152 -0.616,-0.273 -0.896,-1.894 -0.84,-4.859 0.128,-6.818 0.413,-10.941 0.857,-12.369 0.444,-1.428 1.897,-2.883 4.358,-4.365 2.341,-1.409 3.797,-2.034 4.369,-1.873 0.571,0.16 0.838,1.265 0.799,3.318 z"
       style="fill:#000000;fill-opacity:1;fill-rule:nonzero;stroke:#000000;stroke-width:0.4;stroke-linecap:butt;stroke-linejoin:miter;stroke-miterlimit:4;stroke-dasharray:none;stroke-opacity:1"
       transform="matrix(1.3333333,0,0,-1.3333333,143.306,328.50987)"
       clip-path="url(#clipPath37)" />
    <path
       id="path38"
       d="m 0,0 0.456,-24.283 -1.988,1.197 -0.211,11.26 -10.303,6.203 0.211,-11.262 -1.987,1.197 -0.456,24.284 1.988,-1.198 0.201,-10.709 10.303,-6.201 -0.201,10.709 z"
       style="fill:#000000;fill-opacity:1;fill-rule:nonzero;stroke:#000000;stroke-width:0.4;stroke-linecap:butt;stroke-linejoin:miter;stroke-miterlimit:4;stroke-dasharray:none;stroke-opacity:1"
       transform="matrix(1.3333333,0,0,-1.3333333,168.97787,322.64533)"
       clip-path="url(#clipPath39)" />
    <path
       id="path40"
       d="m 0,0 0.155,-8.271 8.947,-5.385 0.044,-2.315 -8.948,5.387 0.17,-9.072 9.334,-5.619 0.044,-2.313 -11.323,6.817 L -2.032,3.51 9.29,-3.307 9.334,-5.619 Z"
       style="fill:#000000;fill-opacity:1;fill-rule:nonzero;stroke:#000000;stroke-width:0.4;stroke-linecap:butt;stroke-linejoin:miter;stroke-miterlimit:4;stroke-dasharray:none;stroke-opacity:1"
       transform="matrix(1.3333333,0,0,-1.3333333,177.31507,330.71307)"
       clip-path="url(#clipPath41)" />
    <path
       id="path42"
       d="m 0,0 0.456,-24.281 -3.267,1.965 -7.694,20.972 -1.252,3.444 -0.619,1.711 -0.619,1.709 -0.052,0.031 0.03,-0.916 0.03,-0.932 0.034,-1.814 0.344,-18.305 -1.989,1.195 -0.455,24.284 3.253,-1.959 6.714,-18.358 1.75,-4.818 0.874,-2.391 0.862,-2.4 0.051,-0.032 -0.029,0.916 -0.029,0.932 -0.035,1.815 -0.345,18.429 z"
       style="fill:#000000;fill-opacity:1;fill-rule:nonzero;stroke:#000000;stroke-width:0.4;stroke-linecap:butt;stroke-linejoin:miter;stroke-miterlimit:4;stroke-dasharray:none;stroke-opacity:1"
       transform="matrix(1.3333333,0,0,-1.3333333,214.5912,350.1036)"
       clip-path="url(#clipPath43)" />
  </g>
</svg>
