#define cloud_width 16
#define cloud_height 16
static unsigned char cloud_bits[] = {
   0x00, 0x00, 0x00, 0x00, 0x00, 0x00, 0xc0, 0x01, 0x20, 0x02, 0x10, 0x04,
   0x10, 0x18, 0x0c, 0x20, 0x02, 0x40, 0x01, 0x40, 0x01, 0x80, 0x01, 0x80,
   0x02, 0x40, 0xfc, 0x3f, 0x00, 0x00, 0x00, 0x00 };
