#define nocloud_width 16
#define nocloud_height 16
static unsigned char nocloud_bits[] = {
   0x00, 0x00, 0x00, 0x00, 0x00, 0x00, 0xc0, 0x01, 0x20, 0x02, 0x10, 0x04,
   0x10, 0x18, 0x2c, 0x22, 0x42, 0x41, 0x81, 0x40, 0x41, 0x81, 0x21, 0x82,
   0x02, 0x40, 0xfc, 0x3f, 0x00, 0x00, 0x00, 0x00 };
